<svg width="256" height="256" viewBox="0 0 256 256" fill="none" xmlns="http://www.w3.org/2000/svg">
<path d="M30.8979 46.8579C31.419 32.2675 31.6796 24.9723 36.3288 20.4862C40.978 16 48.2779 16 62.8775 16H193.122C207.722 16 215.022 16 219.671 20.4862C224.32 24.9723 224.581 32.2675 225.102 46.8579L230.816 206.858C231.373 222.433 231.651 230.22 226.932 235.11C222.214 240 214.421 240 198.837 240H57.1633C41.5786 240 33.7863 240 29.0678 235.11C24.3493 230.22 24.6274 222.433 25.1836 206.858L30.8979 46.8579Z" fill="url(#paint0_linear_3_32)"/>
<path d="M31.0973 40.8239C31.4177 32.0127 31.5779 27.6072 33.421 24.2681C34.9749 21.4528 37.3411 19.1711 40.211 17.7205C43.6148 16 48.0233 16 56.8403 16H199.16C207.977 16 212.385 16 215.789 17.7205C218.659 19.1711 221.025 21.4528 222.579 24.2681C224.422 27.6072 224.582 32.0127 224.903 40.8239L231.029 209.304C231.371 218.713 231.542 223.418 229.788 227.015C228.31 230.044 225.914 232.529 222.94 234.116C219.409 236 214.702 236 205.286 236H50.7138C41.2983 236 36.5905 236 33.0599 234.116C30.0862 232.529 27.6897 230.044 26.212 227.015C24.4575 223.418 24.6286 218.713 24.9708 209.304L31.0973 40.8239Z" fill="url(#paint1_linear_3_32)"/>
<path d="M33.096 40.8966C33.2574 36.4581 33.3756 33.2494 33.6743 30.7293C33.97 28.2336 34.4266 26.585 35.1719 25.2346C36.5317 22.7712 38.6021 20.7747 41.1132 19.5054C42.4898 18.8096 44.154 18.4133 46.6587 18.2084C49.1881 18.0016 52.3989 18 56.8403 18H199.16C203.601 18 206.812 18.0016 209.341 18.2084C211.846 18.4133 213.51 18.8096 214.887 19.5054C217.398 20.7747 219.468 22.7712 220.828 25.2346C221.573 26.585 222.03 28.2336 222.326 30.7293C222.624 33.2494 222.743 36.4581 222.904 40.8966L229.031 209.377C229.203 214.115 229.326 217.545 229.197 220.244C229.069 222.918 228.698 224.687 227.99 226.138C226.697 228.788 224.6 230.963 221.999 232.351C220.574 233.112 218.821 233.547 216.152 233.772C213.46 233.998 210.028 234 205.286 234H50.7138C45.9718 234 42.5396 233.998 39.8479 233.772C37.1794 233.547 35.426 233.112 34.0014 232.351C31.3995 230.963 29.3025 228.788 28.0096 226.138C27.3017 224.687 26.9306 222.918 26.8029 220.244C26.6741 217.545 26.7971 214.115 26.9694 209.377L33.096 40.8966Z" stroke="white" stroke-opacity="0.15" stroke-width="4"/>
<g opacity="0.8" filter="url(#filter0_d_3_32)">
<path d="M141.548 96H116.387L162.839 216H188L141.548 96Z" fill="white"/>
</g>
<g filter="url(#filter1_d_3_32)">
<path d="M114.452 96H139.613L93.1614 216H68.0001L114.452 96Z" fill="white"/>
</g>
<g filter="url(#filter2_d_3_32)">
<rect x="62.1936" y="165.677" width="131.613" height="23.2258" rx="11.6129" fill="#E4D1C1"/>
<rect x="66.1936" y="169.677" width="123.613" height="15.2258" rx="7.6129" stroke="white" stroke-width="8"/>
</g>
<path fill-rule="evenodd" clip-rule="evenodd" d="M33.421 24.2681C31.5779 27.6072 31.4177 32.0127 31.0973 40.8239L29.6727 80H226.036L224.794 40.9408C224.512 32.0919 224.371 27.6675 222.533 24.3124C220.983 21.4837 218.615 19.1895 215.738 17.7305C212.327 16 207.9 16 199.047 16H56.8403C48.0233 16 43.6148 16 40.211 17.7205C37.3411 19.1711 34.9749 21.4528 33.421 24.2681Z" fill="url(#paint2_linear_3_32)"/>
<path fill-rule="evenodd" clip-rule="evenodd" d="M33.421 24.2681C31.5779 27.6072 31.4177 32.0127 31.0973 40.8239L24.9708 209.304C24.8159 213.562 24.6961 216.856 24.7739 219.52C24.8108 217.704 24.8855 215.65 24.9708 213.304L31.0973 44.8239C31.4177 36.0127 31.5779 31.6072 33.421 28.2681C34.9749 25.4528 37.3411 23.1711 40.211 21.7205C43.6148 20 48.0233 20 56.8403 20H199.16C207.977 20 212.385 20 215.789 21.7205C218.659 23.1711 221.025 25.4528 222.579 28.2681C224.422 31.6072 224.582 36.0127 224.903 44.8239L231.029 213.304C231.115 215.65 231.189 217.704 231.226 219.52C231.304 216.856 231.184 213.562 231.029 209.304L224.903 40.8239C224.582 32.0127 224.422 27.6072 222.579 24.2681C221.025 21.4528 218.659 19.1711 215.789 17.7205C212.385 16 207.977 16 199.16 16H56.8403C48.0233 16 43.6148 16 40.211 17.7205C37.3411 19.1711 34.9749 21.4528 33.421 24.2681Z" fill="url(#paint3_linear_3_32)"/>
<circle cx="88" cy="32" r="8" fill="#C3683D"/>
<circle cx="168" cy="32" r="8" fill="#C3683D"/>
<g filter="url(#filter3_d_3_32)">
<path d="M88 32V42C88 62.9868 105.013 80 126 80H130C150.987 80 168 62.9868 168 42V32" stroke="#DEDDDA" stroke-width="8" stroke-linecap="round"/>
</g>
<path d="M88 32V42C88 62.9868 105.013 80 126 80H130C150.987 80 168 62.9868 168 42V32" stroke="#F5F4F3" stroke-width="3.6" stroke-linecap="round"/>
<defs>
<filter id="filter0_d_3_32" x="112.387" y="96" width="79.6129" height="128" filterUnits="userSpaceOnUse" color-interpolation-filters="sRGB">
<feFlood flood-opacity="0" result="BackgroundImageFix"/>
<feColorMatrix in="SourceAlpha" type="matrix" values="0 0 0 0 0 0 0 0 0 0 0 0 0 0 0 0 0 0 127 0" result="hardAlpha"/>
<feOffset dy="4"/>
<feGaussianBlur stdDeviation="2"/>
<feComposite in2="hardAlpha" operator="out"/>
<feColorMatrix type="matrix" values="0 0 0 0 0 0 0 0 0 0 0 0 0 0 0 0 0 0 0.15 0"/>
<feBlend mode="normal" in2="BackgroundImageFix" result="effect1_dropShadow_3_32"/>
<feBlend mode="normal" in="SourceGraphic" in2="effect1_dropShadow_3_32" result="shape"/>
</filter>
<filter id="filter1_d_3_32" x="64.0001" y="96" width="79.6129" height="128" filterUnits="userSpaceOnUse" color-interpolation-filters="sRGB">
<feFlood flood-opacity="0" result="BackgroundImageFix"/>
<feColorMatrix in="SourceAlpha" type="matrix" values="0 0 0 0 0 0 0 0 0 0 0 0 0 0 0 0 0 0 127 0" result="hardAlpha"/>
<feOffset dy="4"/>
<feGaussianBlur stdDeviation="2"/>
<feComposite in2="hardAlpha" operator="out"/>
<feColorMatrix type="matrix" values="0 0 0 0 0 0 0 0 0 0 0 0 0 0 0 0 0 0 0.15 0"/>
<feBlend mode="normal" in2="BackgroundImageFix" result="effect1_dropShadow_3_32"/>
<feBlend mode="normal" in="SourceGraphic" in2="effect1_dropShadow_3_32" result="shape"/>
</filter>
<filter id="filter2_d_3_32" x="58.1936" y="165.677" width="139.613" height="31.2258" filterUnits="userSpaceOnUse" color-interpolation-filters="sRGB">
<feFlood flood-opacity="0" result="BackgroundImageFix"/>
<feColorMatrix in="SourceAlpha" type="matrix" values="0 0 0 0 0 0 0 0 0 0 0 0 0 0 0 0 0 0 127 0" result="hardAlpha"/>
<feOffset dy="4"/>
<feGaussianBlur stdDeviation="2"/>
<feComposite in2="hardAlpha" operator="out"/>
<feColorMatrix type="matrix" values="0 0 0 0 0 0 0 0 0 0 0 0 0 0 0 0 0 0 0.15 0"/>
<feBlend mode="normal" in2="BackgroundImageFix" result="effect1_dropShadow_3_32"/>
<feBlend mode="normal" in="SourceGraphic" in2="effect1_dropShadow_3_32" result="shape"/>
</filter>
<filter id="filter3_d_3_32" x="80" y="28" width="96" height="68" filterUnits="userSpaceOnUse" color-interpolation-filters="sRGB">
<feFlood flood-opacity="0" result="BackgroundImageFix"/>
<feColorMatrix in="SourceAlpha" type="matrix" values="0 0 0 0 0 0 0 0 0 0 0 0 0 0 0 0 0 0 127 0" result="hardAlpha"/>
<feOffset dy="8"/>
<feGaussianBlur stdDeviation="2"/>
<feComposite in2="hardAlpha" operator="out"/>
<feColorMatrix type="matrix" values="0 0 0 0 0 0 0 0 0 0 0 0 0 0 0 0 0 0 0.15 0"/>
<feBlend mode="normal" in2="BackgroundImageFix" result="effect1_dropShadow_3_32"/>
<feBlend mode="normal" in="SourceGraphic" in2="effect1_dropShadow_3_32" result="shape"/>
</filter>
<linearGradient id="paint0_linear_3_32" x1="128" y1="16" x2="128" y2="240" gradientUnits="userSpaceOnUse">
<stop offset="0.308218" stop-color="#EC531D"/>
<stop offset="1" stop-color="#BE502A"/>
</linearGradient>
<linearGradient id="paint1_linear_3_32" x1="128" y1="80.1577" x2="128" y2="227.733" gradientUnits="userSpaceOnUse">
<stop stop-color="#F47842"/>
<stop offset="1" stop-color="#EC531D"/>
</linearGradient>
<linearGradient id="paint2_linear_3_32" x1="127.855" y1="28.6681" x2="127.855" y2="80" gradientUnits="userSpaceOnUse">
<stop stop-color="#F47842"/>
<stop offset="1" stop-color="#EC531D"/>
</linearGradient>
<linearGradient id="paint3_linear_3_32" x1="128" y1="-207.053" x2="142.454" y2="148.037" gradientUnits="userSpaceOnUse">
<stop stop-color="white"/>
<stop offset="1" stop-color="white" stop-opacity="0"/>
</linearGradient>
</defs>
</svg>
