<svg width="264" height="264" viewBox="0 0 264 264" fill="none" xmlns="http://www.w3.org/2000/svg">
<path d="M221 56H43C29.1929 56 18 67.1929 18 81V203C18 216.807 29.1929 228 43 228H221C234.807 228 246 216.807 246 203V81C246 67.1929 234.807 56 221 56Z" fill="#F3692D"/>
<path d="M18 142H246V203C246 216.807 234.807 228 221 228H43C29.1929 228 18 216.807 18 203V142Z" fill="#F3824B"/>
<path d="M102.5 69C106.09 69 109 66.0899 109 62.5C109 58.9101 106.09 56 102.5 56C98.9101 56 96 58.9101 96 62.5C96 66.0899 98.9101 69 102.5 69Z" fill="#D35B28"/>
<path d="M160.5 69C164.09 69 167 66.0899 167 62.5C167 58.9101 164.09 56 160.5 56C156.91 56 154 58.9101 154 62.5C154 66.0899 156.91 69 160.5 69Z" fill="#D35B28"/>
<path d="M164.218 196L131 112.387L141.545 88L189 196H164.218Z" fill="#FFE8DC"/>
<path d="M84.5 173L76 196.5H99L141.5 88H120L84.5 173Z" fill="#FFF9F1"/>
<path d="M181 147H83C76.9249 147 72 151.925 72 158C72 164.075 76.9249 169 83 169H181C187.075 169 192 164.075 192 158C192 151.925 187.075 147 181 147Z" fill="#FBFFFF"/>
<path d="M184 155H82C80.3431 155 79 156.343 79 158C79 159.657 80.3431 161 82 161H184C185.657 161 187 159.657 187 158C187 156.343 185.657 155 184 155Z" fill="#FCDCD0"/>
<path d="M159.348 66.7279C161.929 67.5377 164.717 66.1014 165.147 63.4302C165.732 59.8041 165.728 56.0964 165.124 52.4516C164.253 47.1902 162.156 42.2074 159.005 37.9053C155.853 33.6032 151.734 30.1023 146.98 27.685C142.226 25.2677 136.971 24.0019 131.638 23.9895C126.305 23.9772 121.044 25.2187 116.279 27.6139C111.514 30.0092 107.379 33.491 104.207 37.7785C101.035 42.066 98.9161 47.039 98.0202 52.2963C97.3995 55.9382 97.378 59.6459 97.9461 63.2746C98.3646 65.9478 101.145 67.397 103.731 66.5992C106.316 65.8014 107.711 63.0524 107.449 60.3594C107.241 58.2268 107.317 56.0688 107.679 53.9424C108.317 50.1992 109.826 46.6584 112.084 43.6057C114.343 40.553 117.287 38.0739 120.679 36.3685C124.072 34.6631 127.818 33.7792 131.615 33.7879C135.412 33.7967 139.154 34.698 142.539 36.4191C145.924 38.1402 148.856 40.6329 151.1 43.696C153.344 46.7591 154.837 50.3069 155.457 54.053C155.81 56.1811 155.876 58.3394 155.658 60.471C155.383 63.1628 156.766 65.9181 159.348 66.7279Z" fill="#FFE6B9"/>
</svg>
