<?xml version="1.0" encoding="UTF-8"?><svg xmlns="http://www.w3.org/2000/svg" viewBox="0 0 280 280"><g style="isolation:isolate;"><g id="a"><path d="M208.68,105.3s-1.83-1.22-1.86-1.25l-2.62.49s-.22,1.61-.23,1.64l-4.27-.2s.19-1.61.21-1.64l-2.46-.73s-2.12,1.04-2.16,1.06l-2.79-1.89s2.11-1.06,2.15-1.07l-.86-1.52s-2.78-.13-2.83-.14l.33-2.47s2.79.12,2.83.13l1.25-1.42c-.09-.05-1.81-1.23-1.84-1.26l3.25-1.61s1.83,1.22,1.86,1.25l2.62-.49s.22-1.61.23-1.64l4.27.2s-.19,1.61-.21,1.64l2.46.73s2.12-1.04,2.16-1.06l2.79,1.89s-2.11,1.06-2.15,1.07l.86,1.52s2.78.13,2.83.14l-.33,2.47s-2.79-.12-2.83-.13l-1.25,1.42c.09.05,1.81,1.23,1.84,1.26l-3.25,1.61ZM202.43,101.56c2.1.1,3.93-.81,4.1-2.03.09-.67-.35-1.3-1.12-1.74-.62-.36-1.46-.6-2.4-.64-2.1-.1-3.93.81-4.1,2.03-.09.67.35,1.3,1.12,1.74.62.36,1.46.6,2.4.64h0Z" style="fill:#e95420; stroke-width:0px;"/><polygon points="61.66 160.37 58.94 158.8 58.35 159.14 61.07 160.71 58.35 162.28 58.94 162.63 61.66 161.05 64.38 162.63 64.97 162.28 62.25 160.71 64.97 159.14 64.38 158.8 61.66 160.37" style="fill:#e95420; fill-rule:evenodd; stroke-width:0px;"/><polygon points="47.89 180.53 45.17 178.96 44.58 179.3 47.3 180.87 44.58 182.44 45.17 182.78 47.89 181.21 50.61 182.78 51.2 182.44 48.48 180.87 51.2 179.3 50.61 178.96 47.89 180.53" style="fill:#e95420; fill-rule:evenodd; stroke-width:0px;"/><polygon points="231.51 144.9 228.79 143.32 228.2 143.67 230.92 145.24 228.2 146.81 228.79 147.15 231.51 145.58 234.24 147.15 234.83 146.81 232.11 145.24 234.83 143.67 234.24 143.32 231.51 144.9" style="fill:#e95420; fill-rule:evenodd; stroke-width:0px;"/><polygon points="241.73 154.66 239 153.09 238.41 153.43 241.13 155 238.41 156.58 239 156.92 241.73 155.35 244.45 156.92 245.04 156.58 242.32 155 245.04 153.43 244.45 153.09 241.73 154.66" style="fill:#e95420; fill-rule:evenodd; stroke-width:0px;"/><polygon points="93.19 223.28 90.47 221.71 89.88 222.05 92.6 223.62 89.88 225.19 90.47 225.54 93.19 223.96 95.92 225.54 96.51 225.19 93.78 223.62 96.51 222.05 95.92 221.71 93.19 223.28" style="fill:#e95420; fill-rule:evenodd; stroke-width:0px;"/><g style="opacity:.35;"><polygon points="56.74 200.55 77.21 212.37 75.85 213.15 55.38 201.34 56.74 200.55" style="fill:#e95420; mix-blend-mode:multiply; stroke-width:0px;"/><polygon points="54.03 202.12 74.5 213.94 73.14 214.72 52.67 202.9 54.03 202.12" style="fill:#e95420; mix-blend-mode:multiply; stroke-width:0px;"/><polygon points="51.32 203.68 71.79 215.5 70.43 216.28 49.96 204.46 51.32 203.68" style="fill:#e95420; mix-blend-mode:multiply; stroke-width:0px;"/><polygon points="48.61 205.25 69.08 217.06 67.72 217.85 47.25 206.03 48.61 205.25" style="fill:#e95420; mix-blend-mode:multiply; stroke-width:0px;"/><polygon points="45.9 206.81 66.37 218.63 65.01 219.41 44.54 207.59 45.9 206.81" style="fill:#e95420; mix-blend-mode:multiply; stroke-width:0px;"/><polygon points="43.19 208.37 63.66 220.19 62.3 220.98 41.83 209.16 43.19 208.37" style="fill:#e95420; mix-blend-mode:multiply; stroke-width:0px;"/><polygon points="40.48 209.94 60.95 221.76 59.59 222.54 39.12 210.72 40.48 209.94" style="fill:#e95420; mix-blend-mode:multiply; stroke-width:0px;"/></g><polygon points="83.64 191.76 189.6 130.59 176.72 123.16 70.77 184.33 83.64 191.76" style="fill:#666; opacity:.2; stroke-width:0px;"/><path d="M73.93,161.78l44.65-108.25c2.9-7.04,9.27-11.27,12.89-9.11h0s11.03,6.32,11.03,6.32c-3.63-2.12-9.97,2.11-12.86,9.13l-44.65,108.25c-2.22,5.39-1.36,9.78,1.28,11.22h0s-10.91-6.25-10.91-6.25c-.15-.07-.29-.15-.42-.24h-.01s0,0,0,0c-2.41-1.59-3.13-5.86-.99-11.05Z" style="fill:#fff; stroke:#606060; stroke-linecap:round; stroke-linejoin:round; stroke-width:2px;"/><path d="M86.27,179.33c1.45.79,3.43.69,5.74-.65l89.3-51.56c6.5-3.75,10.46-14.3,7.02-18.68l-44.65-56.69c-.34-.44-.74-.77-1.17-1.02h0s0,0,0,0c-3.63-2.12-9.97,2.11-12.86,9.13l-44.65,108.25c-2.22,5.39-1.36,9.78,1.28,11.22ZM98.38,162.29c-.08-.21-.09-.46.01-.71,1.26-3.04,3.53-8.54,6.38-15.45,9.56-23.14,25.64-62.07,31.97-77.35.95-2.28,1.68-4.04,2.14-5.14.24-.58,1.02-.69,1.42-.2l37.57,47.12,1.92,2.41c1.17,1.47.75,3.63-.87,4.56l-79.14,45.25c-.57.32-1.2.01-1.4-.5Z" style="fill:#fff; stroke:#606060; stroke-linecap:round; stroke-linejoin:round; stroke-width:2px;"/><path d="M98.4,161.57c1.26-3.04,3.53-8.54,6.38-15.45l61.23-35.01c1.63-.93,2.04-3.09.87-4.56l-30.12-37.78c.95-2.28,1.68-4.04,2.14-5.14.24-.58,1.02-.69,1.42-.2l37.57,47.12,1.92,2.41c1.17,1.47.75,3.63-.87,4.56l-79.14,45.25c-.57.32-1.2.01-1.4-.5-.08-.21-.09-.46.01-.71Z" style="fill:#fff; stroke:#606060; stroke-linecap:round; stroke-linejoin:round; stroke-width:2px;"/><path d="M73.93,161.78l44.65-108.25c2.9-7.04,9.27-11.27,12.89-9.11h0s11.03,6.32,11.03,6.32c-3.63-2.12-9.97,2.11-12.86,9.13l-44.65,108.25c-2.22,5.39-1.36,9.78,1.28,11.22h0s-10.91-6.25-10.91-6.25c-.15-.07-.29-.15-.42-.24h-.01s0,0,0,0c-2.41-1.59-3.13-5.86-.99-11.05Z" style="fill:#e95420; stroke:#606060; stroke-miterlimit:10; stroke-width:.5px;"/><path d="M86.27,179.33c1.45.79,3.43.69,5.74-.65l89.3-51.56c6.5-3.75,10.46-14.3,7.02-18.68l-44.65-56.69c-.34-.44-.74-.77-1.17-1.02h0s0,0,0,0c-3.63-2.12-9.97,2.11-12.86,9.13l-44.65,108.25c-2.22,5.39-1.36,9.78,1.28,11.22ZM98.38,162.29c-.08-.21-.09-.46.01-.71,1.26-3.04,3.53-8.54,6.38-15.45,9.56-23.14,25.64-62.07,31.97-77.35.95-2.28,1.68-4.04,2.14-5.14.24-.58,1.02-.69,1.42-.2l37.57,47.12,1.92,2.41c1.17,1.47.75,3.63-.87,4.56l-79.14,45.25c-.57.32-1.2.01-1.4-.5Z" style="fill:#fff; stroke:#606060; stroke-linecap:round; stroke-linejoin:round; stroke-width:.5px;"/><path d="M98.4,161.57c1.26-3.04,3.53-8.54,6.38-15.45l61.23-35.01c1.63-.93,2.04-3.09.87-4.56l-30.12-37.78c.95-2.28,1.68-4.04,2.14-5.14.24-.58,1.02-.69,1.42-.2l37.57,47.12,1.92,2.41c1.17,1.47.75,3.63-.87,4.56l-79.14,45.25c-.57.32-1.2.01-1.4-.5-.08-.21-.09-.46.01-.71Z" style="fill:#fff; stroke:#606060; stroke-linecap:round; stroke-linejoin:round; stroke-width:.5px;"/><path d="M98.4,161.57c1.26-3.04,3.53-8.54,6.38-15.45l61.23-35.01c1.63-.93,2.04-3.09.87-4.56l-30.12-37.78c.95-2.28,1.68-4.04,2.14-5.14.24-.58,1.02-.69,1.42-.2l37.57,47.12,1.92,2.41c1.17,1.47.75,3.63-.87,4.56l-79.14,45.25c-.57.32-1.2.01-1.4-.5-.08-.21-.09-.46.01-.71Z" style="fill:#666; opacity:.2; stroke-width:0px;"/><polygon points="148.12 236.15 240.28 183.07 214.57 168.27 122.4 221.35 148.12 236.15" style="fill:#666; opacity:.2; stroke-width:0px;"/><path d="M136.98,93.49c-.96.55-1.88,1.22-2.76,2-.88.78-1.8,1.74-2.76,2.9l-1.4-3.61c1.01-1.25,2.17-2.45,3.48-3.6,1.3-1.15,2.64-2.12,4.01-2.91,1.65-.95,3-1.47,4.07-1.57,1.07-.1,1.92.07,2.55.5.63.43,1.07,1.05,1.32,1.85.25.81.37,1.66.37,2.54,0,1.08-.17,2.14-.51,3.2-.34,1.05-.78,2.1-1.3,3.12-.52,1.03-1.08,2.04-1.69,3.04-.6,1-1.17,1.99-1.69,2.97-.52.98-.95,1.95-1.3,2.91-.34.96-.51,1.91-.51,2.86v.55c0,.21.01.4.04.57l-4.28,2.47c-.05-.29-.1-.6-.12-.95-.03-.35-.04-.68-.04-1,0-1.05.15-2.07.45-3.07.3-1,.69-1.98,1.15-2.95.47-.97.97-1.9,1.5-2.82.54-.91,1.04-1.8,1.5-2.67.47-.87.85-1.71,1.15-2.52.3-.81.45-1.59.45-2.35,0-1.05-.31-1.73-.93-2.06-.62-.32-1.54-.13-2.78.58ZM140.19,117.3c0,1.11-.32,2.19-.95,3.26-.63,1.06-1.41,1.86-2.35,2.4-.91.52-1.68.62-2.33.3-.65-.32-.97-1.04-.97-2.15s.32-2.21.97-3.29c.64-1.09,1.42-1.89,2.33-2.41.93-.54,1.71-.63,2.35-.29.63.35.95,1.08.95,2.19Z" style="fill:#e95420; stroke-width:0px;"/><polygon points="234.07 172.25 147.51 222.21 131.91 213.2 218.46 163.24 234.07 172.25" style="fill:#fff; fill-rule:evenodd; stroke:#606060; stroke-linecap:round; stroke-linejoin:round; stroke-width:2px;"/><polygon points="234.07 176.18 147.51 226.15 147.51 222.21 234.07 172.25 234.07 176.18" style="fill:#fff; fill-rule:evenodd; stroke:#606060; stroke-linecap:round; stroke-linejoin:round; stroke-width:2px;"/><polygon points="131.91 217.14 147.51 226.15 147.51 222.21 131.91 213.2 131.91 217.14" style="fill:#fff; fill-rule:evenodd; stroke:#606060; stroke-linecap:round; stroke-linejoin:round; stroke-width:2px;"/><polygon points="234.07 172.25 147.51 222.21 131.91 213.2 218.46 163.24 234.07 172.25" style="fill:#fff; fill-rule:evenodd; stroke:#606060; stroke-linecap:round; stroke-linejoin:round; stroke-width:.5px;"/><polygon points="234.07 176.18 147.51 226.15 147.51 222.21 234.07 172.25 234.07 176.18" style="fill:#fff; fill-rule:evenodd; stroke:#606060; stroke-linecap:round; stroke-linejoin:round; stroke-width:.5px;"/><polygon points="131.91 217.14 147.51 226.15 147.51 222.21 131.91 213.2 131.91 217.14" style="fill:#fff; fill-rule:evenodd; stroke:#606060; stroke-linecap:round; stroke-linejoin:round; stroke-width:.5px;"/><polygon points="150.33 151.13 146.04 153.6 144.1 152.48 148.38 150 150.33 151.13" style="fill:#fff; stroke:#606060; stroke-linecap:round; stroke-linejoin:round; stroke-width:2px;"/><polygon points="146.04 214.62 146.04 153.6 144.1 152.48 144.1 213.49 146.04 214.62" style="fill:#fff; stroke:#606060; stroke-linecap:round; stroke-linejoin:round; stroke-width:2px;"/><polygon points="146.04 214.62 150.33 212.14 150.33 151.13 146.04 153.6 146.04 214.62" style="fill:#fff; stroke:#606060; stroke-linecap:round; stroke-linejoin:round; stroke-width:2px;"/><polygon points="150.33 151.13 146.04 153.6 144.1 152.48 148.38 150 150.33 151.13" style="fill:#fff; stroke:#606060; stroke-linecap:round; stroke-linejoin:round; stroke-width:.5px;"/><polygon points="146.04 214.62 146.04 153.6 144.1 152.48 144.1 213.49 146.04 214.62" style="fill:#fff; stroke:#606060; stroke-linecap:round; stroke-linejoin:round; stroke-width:.5px;"/><polygon points="146.04 214.62 150.33 212.14 150.33 151.13 146.04 153.6 146.04 214.62" style="fill:#fff; stroke:#606060; stroke-linecap:round; stroke-linejoin:round; stroke-width:.5px;"/><polygon points="219.1 111.68 214.81 114.16 212.87 113.03 217.15 110.56 219.1 111.68" style="fill:#fff; stroke:#606060; stroke-linecap:round; stroke-linejoin:round; stroke-width:2px;"/><polygon points="214.81 175.17 214.81 114.16 212.87 113.03 212.87 174.05 214.81 175.17" style="fill:#fff; stroke:#606060; stroke-linecap:round; stroke-linejoin:round; stroke-width:2px;"/><polygon points="214.81 175.17 219.1 172.7 219.1 111.68 214.81 114.16 214.81 175.17" style="fill:#fff; stroke:#606060; stroke-linecap:round; stroke-linejoin:round; stroke-width:2px;"/><polygon points="219.1 111.68 214.81 114.16 212.87 113.03 217.15 110.56 219.1 111.68" style="fill:#fff; stroke:#606060; stroke-linecap:round; stroke-linejoin:round; stroke-width:.5px;"/><polygon points="214.81 175.17 214.81 114.16 212.87 113.03 212.87 174.05 214.81 175.17" style="fill:#fff; stroke:#606060; stroke-linecap:round; stroke-linejoin:round; stroke-width:.5px;"/><polygon points="214.81 175.17 219.1 172.7 219.1 111.68 214.81 114.16 214.81 175.17" style="fill:#fff; stroke:#606060; stroke-linecap:round; stroke-linejoin:round; stroke-width:.5px;"/><polygon points="230.2 114.11 138.33 167.15 138.33 167.11 230.2 114.11 226.4 111.99 134.53 164.99 134.53 179.52 138.33 181.63 138.33 181.63 138.33 181.63 143.94 178.39 143.94 178.39 153.76 172.73 153.76 172.73 163.83 166.91 163.83 166.91 173.64 161.25 173.64 161.25 183.71 155.43 183.71 155.43 193.52 149.77 193.52 149.77 203.59 143.95 203.59 143.95 213.41 138.29 213.41 138.29 223.48 132.47 223.48 132.47 230.2 128.6 230.2 114.11" style="fill:#fff; stroke:#606060; stroke-linecap:round; stroke-linejoin:round; stroke-width:2px;"/><polygon points="230.2 128.6 138.33 181.63 138.33 167.15 230.2 114.11 230.2 128.6" style="fill:#fff; stroke:#606060; stroke-linecap:round; stroke-linejoin:round; stroke-width:.5px;"/><polygon points="138.33 181.63 143.94 178.39 138.33 172.86 138.33 181.63" style="fill:#e95420; stroke-width:0px;"/><polygon points="144.49 163.59 153.76 172.73 163.83 166.91 154.56 157.78 144.49 163.59" style="fill:#e95420; stroke-width:0px;"/><polygon points="164.37 152.11 173.64 161.25 183.71 155.43 174.44 146.3 164.37 152.11" style="fill:#e95420; stroke-width:0px;"/><polygon points="184.26 140.63 193.52 149.77 203.59 143.95 194.32 134.82 184.26 140.63" style="fill:#e95420; stroke-width:0px;"/><polygon points="204.14 129.15 213.41 138.29 223.48 132.47 214.21 123.34 204.14 129.15" style="fill:#e95420; stroke-width:0px;"/><polygon points="224.02 117.67 230.2 123.76 230.2 114.11 224.02 117.67" style="fill:#e95420; stroke-width:0px;"/><polygon points="230.2 128.6 138.33 181.63 138.33 167.15 230.2 114.11 230.2 128.6" style="fill:none; stroke:#606060; stroke-linecap:round; stroke-linejoin:round; stroke-width:.5px;"/><polygon points="134.53 179.52 138.33 181.63 138.33 167.11 134.53 164.99 134.53 179.52" style="fill:#fff; stroke:#606060; stroke-linecap:round; stroke-linejoin:round; stroke-width:.5px;"/><polygon points="226.4 111.99 230.2 114.11 138.33 167.11 134.53 164.99 226.4 111.99" style="fill:#fff; stroke:#606060; stroke-linecap:round; stroke-linejoin:round; stroke-width:.5px;"/><path d="M105.51,199.68c-4.64-2.57-12.14-2.59-16.75-.03-4.61,2.56-4.59,6.72.05,9.29,4.64,2.57,12.14,2.59,16.75.03,4.61-2.56,4.59-6.72-.05-9.29ZM90.49,208.02c-3.71-2.06-3.73-5.39-.04-7.43,3.69-2.05,9.69-2.04,13.4.02,3.71,2.06,3.73,5.39.04,7.43-3.69,2.05-9.69,2.04-13.4-.02ZM102.18,201.53c-2.78-1.54-7.28-1.55-10.05-.02-2.77,1.54-2.75,4.03.03,5.58,2.78,1.54,7.28,1.55,10.05.02,2.77-1.54,2.75-4.03-.03-5.58ZM93.83,206.17c-1.86-1.03-1.86-2.69-.02-3.72,1.84-1.02,4.84-1.02,6.7.01,1.86,1.03,1.87,2.69.02,3.72-1.84,1.02-4.84,1.02-6.7-.01ZM98.84,203.39c-.93-.51-2.43-.52-3.35,0s-.92,1.34.01,1.86c.93.51,2.43.52,3.35,0,.92-.51.92-1.34-.01-1.86Z" style="fill:#666; opacity:.2; stroke-width:0px;"/><path d="M78.23,128.64c.46-3.5-1.62-7.09-6.26-9.77-8.44-4.87-22.12-4.87-30.56,0-4.72,2.73-6.8,6.4-6.24,9.96-.36,1.43-.16,2.96-.08,4.6.15,3.07,2.26,6.12,6.32,8.47,8.44,4.87,22.12,4.87,30.56,0,3.99-2.31,6.1-5.29,6.31-8.31.12-1.71.34-3.38-.05-4.96Z" style="fill:#fff; stroke:#606060; stroke-linecap:round; stroke-linejoin:round; stroke-width:2px;"/><ellipse cx="61.95" cy="136.76" rx="24.04" ry="13.88" style="fill:#666; opacity:.2; stroke-width:0px;"/><path d="M71.97,141.9c-8.44,4.87-22.12,4.87-30.56,0-4.06-2.35-6.17-5.4-6.32-8.47-.16-3.31-.8-6.14,3.58-8.67,8.44-4.87,27.61-5.22,36.04-.35,4.45,2.57,3.81,5.81,3.57,9.18-.21,3.02-2.32,6-6.31,8.31Z" style="fill:#fff; stroke:#606060; stroke-linecap:round; stroke-linejoin:round; stroke-width:.5px;"/><path d="M71.97,136.51c-8.44,4.87-22.12,4.87-30.56,0-8.44-4.87-8.44-12.77,0-17.65,8.44-4.87,22.12-4.87,30.56,0,8.44,4.87,8.44,12.77,0,17.65Z" style="fill:#fff; stroke:#606060; stroke-linecap:round; stroke-linejoin:round; stroke-width:.5px;"/><polygon points="67.45 122.58 63.84 120.5 56.27 124.87 48.7 120.5 45.09 122.58 52.66 126.95 45.09 131.32 48.7 133.41 56.27 129.03 63.84 133.41 67.45 131.32 59.88 126.95 67.45 122.58" style="fill:#e95420; stroke-width:0px;"/><path d="M128.91,190.33l-10.52-6.11c-1.06-.61-2.67-.68-3.58-.15l-11.21,6.52c-.52.3-.7.73-.58,1.15.1.33.38.65.84.92l10.52,6.11c1.06.61,2.67.68,3.58.15l11.21-6.52c.36-.21.56-.48.6-.77.07-.44-.22-.93-.86-1.3Z" style="fill:#666; opacity:.2; stroke-width:0px;"/></g></g></svg>