<svg width="90" height="90" viewBox="0 0 90 90" fill="none" xmlns="http://www.w3.org/2000/svg">
<path fill-rule="evenodd" clip-rule="evenodd" d="M45 0C34.8677 0 26.5401 7.86664 25.0049 18H13.5C6.05995 18 0 24.0599 0 31.5V76.5C0 83.94 6.05995 90 13.5 90H76.5C83.94 90 90 83.94 90 76.5V31.5C90 24.0599 83.94 18 76.5 18H64.9951C63.4599 7.86664 55.1323 0 45 0ZM45 4.5C52.5861 4.5 58.9764 10.2351 60.4336 18H29.5664C31.0236 10.2351 37.4139 4.5 45 4.5ZM40.3242 27H49.5967C51.4149 30.8441 53.1822 34.7414 54.8965 38.6895C56.6107 42.6375 58.3238 46.7887 60.0381 51.1523C60.9962 53.5194 61.9645 55.978 62.9385 58.5H65.25C68.9895 58.5 72 61.5105 72 65.25C72 68.0715 70.2816 70.4787 67.834 71.4902C68.9533 74.5273 70.0905 77.6666 71.2617 81H60.6621C59.9348 78.8701 59.1825 76.7674 58.4033 74.6895C58.0711 73.8036 57.7415 72.9048 57.4189 72H32.124C31.7984 72.9267 31.4663 73.8518 31.1309 74.7686L28.9512 81H18.7383C19.9105 77.6636 21.0371 74.521 22.1396 71.4814C19.7057 70.4638 18 68.0616 18 65.25C18 61.5105 21.0105 58.5 24.75 58.5H26.9648C27.9257 55.9778 28.8737 53.5195 29.8037 51.1523C31.5699 46.7887 33.3101 42.6375 35.0244 38.6895C36.7387 34.7414 38.506 30.8441 40.3242 27ZM44.7627 37.4414C43.5679 40.1946 42.1991 43.548 40.6406 47.4961C39.3433 50.896 37.9757 54.599 36.5625 58.5H52.9717C51.5509 54.5895 50.1575 50.864 48.8145 47.417C47.256 43.417 45.9055 40.0907 44.7627 37.4414ZM24.75 63C23.5035 63 22.5 64.0035 22.5 65.25C22.5 66.4965 23.5035 67.5 24.75 67.5H65.25C66.4965 67.5 67.5 66.4965 67.5 65.25C67.5 64.0035 66.4965 63 65.25 63H24.75Z" fill="#E95420"/>
</svg>
